PathFileType	3	(X/Y/Z)	D:\VICON_DB\Goncalves\Pilot01\09-03-2026\walking_03.trc
DataRate	CameraRate	NumFrames	NumMarkers	Units	OrigDataRate	OrigDataStartFrame	OrigNumFrames
200.0	200.0	4	34	mm	200.0	1317	1504	
Frame#	Time	LASI			RASI			LPSI			RPSI			LTHI			LTHAP			LTHAD			LKNE			LKNM			LTIB			LTIAP			LTIAD			LANK			LMED			LHEE			LTOE			LFMH			LSMH			LVMH			RTHI			RTHAP			RTHAD			RKNE			RKNM			RTIB			RTIAP			RTIAD			RANK			RMED			RHEE			RTOE			RFMH			RSMH			RVMH			
		X1	Y1	Z1	X2	Y2	Z2	X3	Y3	Z3	X4	Y4	Z4	X5	Y5	Z5	X6	Y6	Z6	X7	Y7	Z7	X8	Y8	Z8	X9	Y9	Z9	X10	Y10	Z10	X11	Y11	Z11	X12	Y12	Z12	X13	Y13	Z13	X14	Y14	Z14	X15	Y15	Z15	X16	Y16	Z16	X17	Y17	Z17	X18	Y18	Z18	X19	Y19	Z19	X20	Y20	Z20	X21	Y21	Z21	X22	Y22	Z22	X23	Y23	Z23	X24	Y24	Z24	X25	Y25	Z25	X26	Y26	Z26	X27	Y27	Z27	X28	Y28	Z28	X29	Y29	Z29	X30	Y30	Z30	X31	Y31	Z31	X32	Y32	Z32	X33	Y33	Z33	X34	Y34	Z34	
1317	6.58	78.435944	883.33612	-3072.7786	338.04147	889.31335	-3068.9719	159.9769	936.62701	-2883.0569	231.22122	935.67212	-2875.0703	60.281837	710.0705	-3131.8362	40.868889	764.51691	-3084.2332	31.353079	635.92871	-3126.4229	56.090225	473.95587	-3144.2256				52.889172	293.59323	-3064.4131	101.51347	351.51767	-3147.2534	83.849876	257.18332	-3094.5698	95.591064	105.97797	-2975.7219				151.88724	116.15546	-2938.3879	112.62683	84.326904	-3054.4324	140.74629	42.502003	-3096.7581				62.396595	31.397726	-3075.2422	357.90677	609.6347	-3027.1057	354.91934	738.52948	-3067.2158	324.55673	647.68463	-3085.8677	336.05441	477.34836	-2977.7654				329.15118	279.32254	-2954.957	279.16714	335.90128	-2992.2893	267.45062	251.42107	-2984.1902	273.99625	51.670746	-2911.8071				234.72972	54.047379	-2869.8865	245.31897	59.371975	-3001.1243	220.33183	39.873272	-3048.249				292.49683	10.747823	-3043.3174
1318	6.585	78.633469	883.20197	-3077.5842	338.26288	888.86365	-3072.7351	159.38353	936.40411	-2887.9937	230.65575	935.54407	-2879.385	60.539181	710.62543	-3137.2163	40.875042	764.8761	-3089.5042	31.489763	636.50958	-3132.2766	56.508434	474.539	-3150.4512				52.607391	292.08875	-3075.1023	101.8459	352.27808	-3155.8169	83.845985	256.42108	-3106.0022	94.64196	101.88887	-2991.7349				150.70042	110.86199	-2953.947	111.91296	82.514954	-3071.0176	140.04192	41.912655	-3114.4807				61.547192	30.363165	-3093.551	357.73349	609.41388	-3029.4883	355.03229	737.96515	-3070.0833	324.6214	647.08295	-3088.3923	335.95554	477.23236	-2979.5469				328.87439	279.42319	-2955.5583	279.07831	335.75784	-2993.2217	266.63989	250.99316	-2984.5715	273.69815	51.753605	-2912.0574				234.40382	54.280563	-2870.0437	244.31352	59.000893	-3002.2979	220.5018	39.570866	-3048.373				292.48077	10.761067	-3043.2847
1319	6.59	78.80024	883.01672	-3082.3838	338.45581	888.4101	-3076.5024	158.77504	936.13605	-2892.9358	230.08978	935.38062	-2883.6836	60.779461	711.047	-3142.5134	40.858486	765.13019	-3094.7354	31.626436	636.95599	-3137.9954	56.882236	475.00815	-3156.5049				52.285152	290.62012	-3085.7214	102.14732	352.99966	-3164.2285	83.77755	255.72621	-3117.3638	93.630058	97.955391	-3007.8381				149.42072	105.72603	-2969.5864	111.19254	80.841896	-3087.6074	139.38368	41.466431	-3132.136				60.738079	29.470985	-3111.8503	357.5589	609.20709	-3031.9341	355.12463	737.41418	-3072.9917	324.67139	646.49554	-3090.978	335.82028	477.10608	-2981.426				328.58301	279.51675	-2956.2415	279.00003	335.57886	-2994.2786	265.90009	250.59021	-2985.0596	273.4093	51.824253	-2912.3242				234.06931	54.519405	-2870.2124	243.32138	58.417721	-3003.8247	220.64709	39.256855	-3048.4983				292.44754	10.779645	-3043.2485
1320	6.595	78.939651	882.78156	-3087.1787	338.62271	887.95514	-3080.2769	158.15105	935.82227	-2897.8809	229.52322	935.18341	-2887.9661	61.003658	711.33069	-3147.7249	40.822086	765.27612	-3099.926	31.764254	637.26239	-3143.5742	57.202412	475.362	-3162.3899				51.923828	289.19553	-3096.2659	102.41323	353.68649	-3172.491	83.646858	255.10716	-3128.647	92.565323	94.19381	-3024.0132				148.05742	100.76718	-2985.2842	110.4657	79.330139	-3104.1892	138.7821	41.176964	-3149.7073				59.98175	28.732601	-3130.124	357.37225	609.01349	-3034.4355	355.19479	736.8764	-3075.9451	324.70633	645.92169	-3093.6262	335.65344	476.97031	-2983.3982				328.28922	279.59384	-2957.0178	278.94467	335.35773	-2995.4722	265.2565	250.2292	-2985.6646	273.12567	51.886971	-2912.6042				233.72556	54.76421	-2870.3916	242.39424	57.589977	-3005.7615	220.7444	38.949326	-3048.6289				292.39368	10.805059	-3043.2104
